<?xml version="1.0" encoding="utf-8"?>
<!-- Generator: Adobe Illustrator 17.0.1, SVG Export Plug-In . SVG Version: 6.00 Build 0)  -->
<!DOCTYPE svg PUBLIC "-//W3C//DTD SVG 1.1//EN" "http://www.w3.org/Graphics/SVG/1.1/DTD/svg11.dtd">
<svg version="1.1" id="Layer_1" xmlns="http://www.w3.org/2000/svg" xmlns:xlink="http://www.w3.org/1999/xlink" x="0px" y="0px"
	 width="33.997px" height="340px" viewBox="0 0 33.997 340" enable-background="new 0 0 33.997 340" xml:space="preserve">
<g>
	<polygon fill="none" points="15.998,37 15.998,35 15.997,35 15.997,37 15.997,39 15.997,41.001 15.998,41.001 15.998,39 	"/>
	<polygon fill="#B53A43" points="21.997,1 21.997,3 21.997,5 21.997,7 21.997,9 21.997,11 21.997,13.001 21.997,15 21.997,17 
		21.997,19 21.997,21 21.997,23 21.997,25 21.997,27 21.997,29 21.997,31 19.997,31 17.997,31 15.998,31 15.998,33 17.997,33 
		19.997,33 21.997,33 23.997,33 25.997,33 27.997,33 29.997,33 31.997,33 33.997,33 33.997,31 33.997,29 33.997,27 33.997,25 
		33.997,23 33.997,21 33.997,19 33.997,17 33.997,15 33.997,13.001 33.997,13 33.997,11 33.997,9 33.997,7 33.997,5 33.997,3 
		33.997,1 33.997,-1 33.997,-3 31.997,-3 29.997,-3 27.997,-3 25.997,-3 23.997,-3 21.997,-3 21.997,-1 	"/>
	<polygon fill="#FFFFFF" points="11.997,1 11.997,3 11.997,5 11.997,7 11.997,9 11.997,11 11.997,13.001 11.997,15 11.997,17 
		11.997,19 11.997,21 11.997,23 11.997,25 11.997,27 11.997,29 11.997,31 13.997,31 15.998,31 17.997,31 19.997,31 21.997,31 
		21.997,29 21.997,27 21.997,25 21.997,23 21.997,21 21.997,19 21.997,17 21.997,15 21.997,13.001 21.997,11 21.997,9 21.997,7 
		21.997,5 21.997,3 21.997,1 21.997,-1 21.997,-3 19.997,-3 17.997,-3 15.998,-3 13.997,-3 11.997,-3 11.997,-1 	"/>
	<polygon fill="#FFFFFF" points="3.997,63 5.997,63 7.997,63 9.997,63 11.997,63 13.997,63 15.998,63 17.997,63 19.997,63 
		21.997,63 23.997,63 25.997,63 27.997,63 29.997,63 31.997,63 33.997,63 33.997,61.001 33.997,61 31.997,61 29.997,61 27.997,61 
		25.997,61 23.997,61 21.997,61 19.997,61 17.997,61 15.998,61 13.997,61 11.997,61 9.997,61 7.997,61 5.997,61 3.997,61 1.997,61 
		-0.003,61 -0.003,63 1.997,63 	"/>
	<polygon fill="#B53A43" points="3.997,61 5.997,61 7.997,61 9.997,61 11.997,61 13.997,61 15.998,61 17.997,61 19.997,61 
		21.997,61 23.997,61 25.997,61 27.997,61 29.997,61 31.997,61 33.997,61 33.997,59.001 33.997,59 31.997,59 29.997,59 27.997,59 
		25.997,59 23.997,59 21.997,59 19.997,59 17.997,59 15.998,59 13.997,59 11.997,59 9.997,59 7.997,59 5.997,59 3.997,59 1.997,59 
		-0.003,59 -0.003,61 1.997,61 	"/>
	<polygon fill="#FFFFFF" points="3.997,59 5.997,59 7.997,59 9.997,59 11.997,59 13.997,59 15.998,59 17.997,59 19.997,59 
		21.997,59 23.997,59 25.997,59 27.997,59 29.997,59 31.997,59 33.997,59 33.997,57.001 33.997,57 31.997,57 29.997,57 27.997,57 
		25.997,57 23.997,57 21.997,57 19.997,57 17.997,57 15.998,57 13.997,57 11.997,57 9.997,57 7.997,57 5.997,57 3.997,57 1.997,57 
		-0.003,57 -0.003,59 1.997,59 	"/>
	<polygon fill="#B53A43" points="3.997,57 5.997,57 7.997,57 9.997,57 11.997,57 13.997,57 15.998,57 17.997,57 19.997,57 
		21.997,57 23.997,57 25.997,57 27.997,57 29.997,57 31.997,57 33.997,57 33.997,55.001 33.997,55 31.997,55 29.997,55 27.997,55 
		25.997,55 23.997,55 21.997,55 19.997,55 17.997,55 15.998,55 13.997,55 11.997,55 9.997,55 7.997,55 5.997,55 3.997,55 1.997,55 
		-0.003,55 -0.003,57 1.997,57 	"/>
	<polygon fill="#FFFFFF" points="3.997,55 5.997,55 7.997,55 9.997,55 11.997,55 13.997,55 15.998,55 17.997,55 19.997,55 
		21.997,55 23.997,55 25.997,55 27.997,55 29.997,55 31.997,55 33.997,55 33.997,53.001 33.997,53 31.997,53 29.997,53 27.997,53 
		25.997,53 23.997,53 21.997,53 19.997,53 17.997,53 15.998,53 13.997,53 11.997,53 9.997,53 7.997,53 5.997,53 3.997,53 1.997,53 
		-0.003,53 -0.003,55 1.997,55 	"/>
	<polygon fill="#B53A43" points="3.997,53 5.997,53 7.997,53 9.997,53 11.997,53 13.997,53 15.998,53 17.997,53 19.997,53 
		21.997,53 23.997,53 25.997,53 27.997,53 29.997,53 31.997,53 33.997,53 33.997,51.001 33.997,51 31.997,51 29.997,51 27.997,51 
		25.997,51 23.997,51 21.997,51 19.997,51 17.997,51 15.998,51 13.997,51 11.997,51 9.997,51 7.997,51 5.997,51 3.997,51 1.997,51 
		-0.003,51 -0.003,53 1.997,53 	"/>
	<polygon fill="#FFFFFF" points="3.997,51 5.997,51 7.997,51 9.997,51 11.997,51 13.997,51 15.998,51 17.997,51 19.997,51 
		21.997,51 23.997,51 25.997,51 27.997,51 29.997,51 31.997,51 33.997,51 33.997,49.001 33.997,49 31.997,49 29.997,49 27.997,49 
		25.997,49 23.997,49 21.997,49 19.997,49 17.997,49 15.998,49 13.997,49 11.997,49 9.997,49 7.997,49 5.997,49 3.997,49 1.997,49 
		-0.003,49 -0.003,51 1.997,51 	"/>
	<polygon fill="#B53A43" points="3.997,49 5.997,49 7.997,49 9.997,49 11.997,49 13.997,49 15.998,49 17.997,49 19.997,49 
		21.997,49 23.997,49 25.997,49 27.997,49 29.997,49 31.997,49 33.997,49 33.997,47.001 33.997,47 31.997,47 29.997,47 27.997,47 
		25.997,47 23.997,47 21.997,47 19.997,47 17.997,47 15.998,47 13.997,47 11.997,47 9.997,47 7.997,47 5.997,47 3.997,47 1.997,47 
		-0.003,47 -0.003,49 1.997,49 	"/>
	<polygon fill="#FFFFFF" points="3.997,47 5.997,47 7.997,47 9.997,47 11.997,47 13.997,47 15.998,47 17.997,47 19.997,47 
		21.997,47 23.997,47 25.997,47 27.997,47 29.997,47 31.997,47 33.997,47 33.997,45.001 33.997,45 31.997,45 29.997,45 27.997,45 
		25.997,45 23.997,45 21.997,45 19.997,45 17.997,45 15.998,45 13.997,45 11.997,45 9.997,45 7.997,45 5.997,45 3.997,45 1.997,45 
		-0.003,45 -0.003,47 1.997,47 	"/>
	<polygon fill="#B53A43" points="29.997,43 27.997,43 25.997,43 23.997,43 21.997,43 19.997,43 17.997,43 15.998,43 15.998,45 
		17.997,45 19.997,45 21.997,45 23.997,45 25.997,45 27.997,45 29.997,45 31.997,45 33.997,45 33.997,43.001 33.997,43 31.997,43 	
		"/>
	<polygon fill="#FFFFFF" points="29.997,41.001 27.997,41.001 25.997,41.001 23.997,41.001 21.997,41.001 19.997,41.001 
		17.997,41.001 15.998,41.001 15.998,43 17.997,43 19.997,43 21.997,43 23.997,43 25.997,43 27.997,43 29.997,43 31.997,43 
		33.997,43 33.997,41.001 31.997,41.001 	"/>
	<polygon fill="#B53A43" points="29.997,39 27.997,39 25.997,39 23.997,39 21.997,39 19.997,39 17.997,39 15.998,39 15.998,41.001 
		17.997,41.001 19.997,41.001 21.997,41.001 23.997,41.001 25.997,41.001 27.997,41.001 29.997,41.001 31.997,41.001 33.997,41.001 
		33.997,39 31.997,39 	"/>
	<polygon fill="#FFFFFF" points="29.997,37 27.997,37 25.997,37 23.997,37 21.997,37 19.997,37 17.997,37 15.998,37 15.998,39 
		17.997,39 19.997,39 21.997,39 23.997,39 25.997,39 27.997,39 29.997,39 31.997,39 33.997,39 33.997,37 31.997,37 	"/>
	<polygon fill="#B53A43" points="29.997,35 27.997,35 25.997,35 23.997,35 21.997,35 19.997,35 17.997,35 15.998,35 15.998,37 
		17.997,37 19.997,37 21.997,37 23.997,37 25.997,37 27.997,37 29.997,37 31.997,37 33.997,37 33.997,35 31.997,35 	"/>
	<polygon fill="#FFFFFF" points="29.997,33 27.997,33 25.997,33 23.997,33 21.997,33 19.997,33 17.997,33 15.998,33 15.998,35 
		17.997,35 19.997,35 21.997,35 23.997,35 25.997,35 27.997,35 29.997,35 31.997,35 33.997,35 33.997,33 31.997,33 	"/>
	<rect x="13.997" y="39" fill="#FFFFFF" width="2" height="2.001"/>
	<rect x="13.997" y="37" fill="#2F6489" width="2" height="2"/>
	<rect x="13.997" y="35" fill="#FFFFFF" width="2" height="2"/>
	<rect x="11.997" y="41.001" fill="#FFFFFF" width="2" height="1.999"/>
	<rect x="11.997" y="39" fill="#2F6489" width="2" height="2.001"/>
	<rect x="11.997" y="37" fill="#FFFFFF" width="2" height="2"/>
	<rect x="11.997" y="35" fill="#2F6489" width="2" height="2"/>
	<rect x="11.997" y="33" fill="#FFFFFF" width="2" height="2"/>
	<rect x="9.997" y="39" fill="#FFFFFF" width="2" height="2.001"/>
	<rect x="9.997" y="37" fill="#2F6489" width="2" height="2"/>
	<rect x="9.997" y="35" fill="#FFFFFF" width="2" height="2"/>
	<rect x="7.997" y="41.001" fill="#FFFFFF" width="2" height="1.999"/>
	<rect x="7.997" y="39" fill="#2F6489" width="2" height="2.001"/>
	<rect x="7.997" y="37" fill="#FFFFFF" width="2" height="2"/>
	<rect x="7.997" y="35" fill="#2F6489" width="2" height="2"/>
	<rect x="7.997" y="33" fill="#FFFFFF" width="2" height="2"/>
	<rect x="5.997" y="39" fill="#FFFFFF" width="2" height="2.001"/>
	<rect x="5.997" y="37" fill="#2F6489" width="2" height="2"/>
	<rect x="5.997" y="35" fill="#FFFFFF" width="2" height="2"/>
	<rect x="3.997" y="41.001" fill="#FFFFFF" width="2" height="1.999"/>
	<rect x="3.997" y="39" fill="#2F6489" width="2" height="2.001"/>
	<rect x="3.997" y="37" fill="#FFFFFF" width="2" height="2"/>
	<rect x="3.997" y="35" fill="#2F6489" width="2" height="2"/>
	<rect x="3.997" y="33" fill="#FFFFFF" width="2" height="2"/>
	<polygon fill="#2F6489" points="3.997,45 5.997,45 7.997,45 9.997,45 11.997,45 13.997,45 15.998,45 15.998,43 15.998,41.001 
		15.997,41.001 13.997,41.001 13.997,43 11.997,43 11.997,41.001 9.997,41.001 9.997,43 7.997,43 7.997,41.001 5.997,41.001 
		5.997,43 3.997,43 3.997,41.001 1.997,41.001 1.997,43 1.997,43.001 -0.003,43.001 -0.003,45 1.997,45 	"/>
	<rect x="1.997" y="39" fill="#FFFFFF" width="2" height="2.001"/>
	<rect x="1.997" y="37" fill="#2F6489" width="2" height="2"/>
	<rect x="1.997" y="35" fill="#FFFFFF" width="2" height="2"/>
	<polygon fill="#2F6489" points="1.997,35 3.997,35 3.997,33 5.997,33 5.997,35 7.997,35 7.997,33 9.997,33 9.997,35 11.997,35 
		11.997,33 13.997,33 13.997,35 15.997,35 15.998,35 15.998,33 15.998,31 13.997,31 11.997,31 11.997,29 11.997,27 11.997,25 
		11.997,23 11.997,21 11.997,19 11.997,17 11.997,15 11.997,13.001 11.997,11 11.997,9 11.997,7 11.997,5 11.997,3 11.997,1 
		11.997,-1 11.997,-3 9.997,-3 7.997,-3 5.997,-3 3.997,-3 1.997,-3 -0.003,-3 -0.003,-1 -0.003,1 -0.003,3 -0.003,5 -0.003,7 
		-0.003,9 -0.003,11 -0.003,13.001 -0.003,15 -0.003,17 -0.003,19 -0.003,21 -0.003,23 -0.003,25 -0.003,27 -0.003,29 -0.003,31 
		-0.003,33 1.997,33 	"/>
	<polygon fill="#FFFFFF" points="1.997,43 1.997,41.001 -0.003,41.001 -0.003,43 -0.003,43.001 1.997,43.001 	"/>
	<rect x="-0.003" y="39" fill="#2F6489" width="2" height="2.001"/>
	<rect x="-0.003" y="37" fill="#FFFFFF" width="2" height="2"/>
	<rect x="-0.003" y="35" fill="#2F6489" width="2" height="2"/>
	<rect x="-0.003" y="33" fill="#FFFFFF" width="2" height="2"/>
	<rect x="31.997" y="97" fill="#B53A43" width="2" height="2"/>
	<rect x="31.997" y="95" fill="#FFFFFF" width="2" height="2"/>
	<polygon fill="#2F6489" points="31.997,71 29.997,71 29.997,73 27.997,73 27.997,75 25.997,75 25.997,77 23.997,77 23.997,79 
		25.997,79 27.997,79 29.997,79 31.997,79 33.997,79 33.997,77 33.997,75 33.997,73 33.997,71 33.997,69 31.997,69 	"/>
	<rect x="31.997" y="67" fill="#FFFFFF" width="2" height="2"/>
	<rect x="29.997" y="97" fill="#FFFFFF" width="2" height="2"/>
	<rect x="29.997" y="95" fill="#B53A43" width="2" height="2"/>
	<rect x="29.997" y="93" fill="#FFFFFF" width="2" height="2"/>
	<polygon fill="#2F6489" points="29.997,85 27.997,85 25.997,85 23.997,85 23.997,87 25.997,87 25.997,89 27.997,89 27.997,91 
		29.997,91 29.997,93 31.997,93 31.997,95 33.997,95 33.997,93 33.997,91 33.997,89 33.997,87 33.997,85 31.997,85 	"/>
	<polygon fill="#FFFFFF" points="29.997,83 27.997,83 25.997,83 23.997,83 21.997,83 19.997,83 19.997,85 21.997,85 21.997,87 
		23.997,87 23.997,85 25.997,85 27.997,85 29.997,85 31.997,85 33.997,85 33.997,83 31.997,83 	"/>
	<polygon fill="#B53A43" points="3.997,83 5.997,83 7.997,83 9.997,83 11.997,83 13.997,83 13.997,85 15.998,85 15.998,87 
		15.998,89 15.998,91 15.998,93 15.998,95 15.998,97 15.998,99 17.997,99 17.997,97 17.997,95 17.997,93 17.997,91 17.997,89 
		17.997,87 17.997,85 19.997,85 19.997,83 21.997,83 23.997,83 25.997,83 27.997,83 29.997,83 31.997,83 33.997,83 33.997,81 
		31.997,81 29.997,81 27.997,81 25.997,81 23.997,81 21.997,81 19.997,81 19.997,79 17.997,79 17.997,77 17.997,75 17.997,73 
		17.997,71 17.997,69 17.997,67 17.997,65 19.997,65 21.997,65 23.997,65 25.997,65 27.997,65 29.997,65 31.997,65 31.997,67 
		33.997,67 33.997,65.001 33.997,65 33.997,63.001 33.997,63 31.997,63 29.997,63 27.997,63 25.997,63 23.997,63 21.997,63 
		19.997,63 17.997,63 15.998,63 13.997,63 11.997,63 9.997,63 7.997,63 5.997,63 3.997,63 1.997,63 -0.003,63 -0.003,65 -0.003,67 
		1.997,67 1.997,65 3.997,65 5.997,65 7.997,65 9.997,65 11.997,65 13.997,65 15.998,65 15.998,67 15.998,69 15.998,71 15.998,73 
		15.998,75 15.998,77 15.998,79 13.997,79 13.997,81 11.997,81 9.997,81 7.997,81 5.997,81 3.997,81 1.997,81 -0.003,81 -0.003,83 
		1.997,83 	"/>
	<polygon fill="#FFFFFF" points="29.997,79 27.997,79 25.997,79 23.997,79 23.997,77 21.997,77 21.997,79 19.997,79 19.997,81 
		21.997,81 23.997,81 25.997,81 27.997,81 29.997,81 31.997,81 33.997,81 33.997,79 31.997,79 	"/>
	<rect x="29.997" y="69" fill="#FFFFFF" width="2" height="2"/>
	<rect x="29.997" y="67" fill="#B53A43" width="2" height="2"/>
	<rect x="29.997" y="65" fill="#FFFFFF" width="2" height="2"/>
	<polygon fill="#2F6489" points="27.997,97 27.997,95 25.997,95 25.997,93 23.997,93 23.997,91 21.997,91 21.997,89 19.997,89 
		19.997,91 19.997,93 19.997,95 19.997,97 19.997,99 21.997,99 23.997,99 25.997,99 27.997,99 29.997,99 29.997,97 	"/>
	<rect x="27.997" y="95" fill="#FFFFFF" width="2" height="2"/>
	<rect x="27.997" y="93" fill="#B53A43" width="2" height="2"/>
	<rect x="27.997" y="91" fill="#FFFFFF" width="2" height="2"/>
	<rect x="27.997" y="71" fill="#FFFFFF" width="2" height="2"/>
	<rect x="27.997" y="69" fill="#B53A43" width="2" height="2"/>
	<rect x="27.997" y="67" fill="#FFFFFF" width="2" height="2"/>
	<rect x="25.997" y="93" fill="#FFFFFF" width="2" height="2"/>
	<rect x="25.997" y="91" fill="#B53A43" width="2" height="2"/>
	<rect x="25.997" y="89" fill="#FFFFFF" width="2" height="2"/>
	<rect x="25.997" y="73" fill="#FFFFFF" width="2" height="2"/>
	<rect x="25.997" y="71" fill="#B53A43" width="2" height="2"/>
	<rect x="25.997" y="69" fill="#FFFFFF" width="2" height="2"/>
	<rect x="23.997" y="91" fill="#FFFFFF" width="2" height="2"/>
	<rect x="23.997" y="89" fill="#B53A43" width="2" height="2"/>
	<rect x="23.997" y="87" fill="#FFFFFF" width="2" height="2"/>
	<rect x="23.997" y="75" fill="#FFFFFF" width="2" height="2"/>
	<rect x="23.997" y="73" fill="#B53A43" width="2" height="2"/>
	<rect x="23.997" y="71" fill="#FFFFFF" width="2" height="2"/>
	<rect x="21.997" y="89" fill="#FFFFFF" width="2" height="2"/>
	<rect x="21.997" y="87" fill="#B53A43" width="2" height="2"/>
	<rect x="21.997" y="75" fill="#B53A43" width="2" height="2"/>
	<rect x="21.997" y="73" fill="#FFFFFF" width="2" height="2"/>
	<rect x="19.997" y="85" fill="#B53A43" width="2" height="2"/>
	<rect x="19.997" y="77" fill="#B53A43" width="2" height="2"/>
	<polygon fill="#2F6489" points="19.997,69 19.997,71 19.997,73 19.997,75 21.997,75 21.997,73 23.997,73 23.997,71 25.997,71 
		25.997,69 27.997,69 27.997,67 29.997,67 29.997,65 27.997,65 25.997,65 23.997,65 21.997,65 19.997,65 19.997,67 	"/>
	<polygon fill="#FFFFFF" points="19.997,95 19.997,93 19.997,91 19.997,89 21.997,89 21.997,87 19.997,87 19.997,85 17.997,85 
		17.997,87 17.997,89 17.997,91 17.997,93 17.997,95 17.997,97 17.997,99 19.997,99 19.997,97 	"/>
	<polygon fill="#FFFFFF" points="21.997,77 21.997,75 19.997,75 19.997,73 19.997,71 19.997,69 19.997,67 19.997,65 17.997,65 
		17.997,67 17.997,69 17.997,71 17.997,73 17.997,75 17.997,77 17.997,79 19.997,79 19.997,77 	"/>
	<polygon fill="#FFFFFF" points="15.998,95 15.998,93 15.998,91 15.998,89 15.998,87 15.998,85 13.997,85 13.997,87 11.997,87 
		11.997,89 13.997,89 13.997,91 13.997,93 13.997,95 13.997,97 13.997,99 15.998,99 15.998,97 	"/>
	<polygon fill="#FFFFFF" points="13.997,69 13.997,71 13.997,73 13.997,75 11.997,75 11.997,77 13.997,77 13.997,79 15.998,79 
		15.998,77 15.998,75 15.998,73 15.998,71 15.998,69 15.998,67 15.998,65 13.997,65 13.997,67 	"/>
	<polygon fill="#2F6489" points="13.997,95 13.997,93 13.997,91 13.997,89 11.997,89 11.997,91 9.997,91 9.997,93 7.997,93 
		7.997,95 5.997,95 5.997,97 3.997,97 3.997,99 5.997,99 7.997,99 9.997,99 11.997,99 13.997,99 13.997,97 	"/>
	<rect x="11.997" y="85" fill="#B53A43" width="2" height="2"/>
	<rect x="11.997" y="77" fill="#B53A43" width="2" height="2"/>
	<rect x="9.997" y="89" fill="#FFFFFF" width="2" height="2"/>
	<rect x="9.997" y="87" fill="#B53A43" width="2" height="2"/>
	<rect x="9.997" y="75" fill="#B53A43" width="2" height="2"/>
	<rect x="9.997" y="73" fill="#FFFFFF" width="2" height="2"/>
	<rect x="7.997" y="91" fill="#FFFFFF" width="2" height="2"/>
	<rect x="7.997" y="89" fill="#B53A43" width="2" height="2"/>
	<rect x="7.997" y="87" fill="#FFFFFF" width="2" height="2"/>
	<rect x="7.997" y="75" fill="#FFFFFF" width="2" height="2"/>
	<rect x="7.997" y="73" fill="#B53A43" width="2" height="2"/>
	<rect x="7.997" y="71" fill="#FFFFFF" width="2" height="2"/>
	<rect x="5.997" y="93" fill="#FFFFFF" width="2" height="2"/>
	<rect x="5.997" y="91" fill="#B53A43" width="2" height="2"/>
	<rect x="5.997" y="89" fill="#FFFFFF" width="2" height="2"/>
	<rect x="5.997" y="73" fill="#FFFFFF" width="2" height="2"/>
	<rect x="5.997" y="71" fill="#B53A43" width="2" height="2"/>
	<rect x="5.997" y="69" fill="#FFFFFF" width="2" height="2"/>
	<rect x="3.997" y="95" fill="#FFFFFF" width="2" height="2"/>
	<rect x="3.997" y="93" fill="#B53A43" width="2" height="2"/>
	<rect x="3.997" y="91" fill="#FFFFFF" width="2" height="2"/>
	<rect x="3.997" y="71" fill="#FFFFFF" width="2" height="2"/>
	<rect x="3.997" y="69" fill="#B53A43" width="2" height="2"/>
	<rect x="3.997" y="67" fill="#FFFFFF" width="2" height="2"/>
	<polygon fill="#2F6489" points="5.997,67 5.997,69 7.997,69 7.997,71 9.997,71 9.997,73 11.997,73 11.997,75 13.997,75 13.997,73 
		13.997,71 13.997,69 13.997,67 13.997,65 11.997,65 9.997,65 7.997,65 5.997,65 3.997,65 3.997,67 	"/>
	<rect x="1.997" y="97" fill="#FFFFFF" width="2" height="2"/>
	<rect x="1.997" y="95" fill="#B53A43" width="2" height="2"/>
	<rect x="1.997" y="93" fill="#FFFFFF" width="2" height="2"/>
	<polygon fill="#FFFFFF" points="3.997,85 5.997,85 7.997,85 9.997,85 9.997,87 11.997,87 11.997,85 13.997,85 13.997,83 11.997,83 
		9.997,83 7.997,83 5.997,83 3.997,83 1.997,83 -0.003,83 -0.003,85 1.997,85 	"/>
	<polygon fill="#FFFFFF" points="3.997,81 5.997,81 7.997,81 9.997,81 11.997,81 13.997,81 13.997,79 11.997,79 11.997,77 9.997,77 
		9.997,79 7.997,79 5.997,79 3.997,79 1.997,79 -0.003,79 -0.003,81 1.997,81 	"/>
	<polygon fill="#2F6489" points="3.997,79 5.997,79 7.997,79 9.997,79 9.997,77 7.997,77 7.997,75 5.997,75 5.997,73 3.997,73 
		3.997,71 1.997,71 1.997,69 -0.003,69 -0.003,71 -0.003,73 -0.003,75 -0.003,77 -0.003,79 1.997,79 	"/>
	<rect x="1.997" y="69" fill="#FFFFFF" width="2" height="2"/>
	<rect x="1.997" y="67" fill="#B53A43" width="2" height="2"/>
	<rect x="1.997" y="65" fill="#FFFFFF" width="2" height="2"/>
	<rect x="-0.003" y="97" fill="#B53A43" width="2" height="2"/>
	<rect x="-0.003" y="95" fill="#FFFFFF" width="2" height="2"/>
	<polygon fill="#2F6489" points="1.997,93 3.997,93 3.997,91 5.997,91 5.997,89 7.997,89 7.997,87 9.997,87 9.997,85 7.997,85 
		5.997,85 3.997,85 1.997,85 -0.003,85 -0.003,87 -0.003,89 -0.003,91 -0.003,93 -0.003,95 1.997,95 	"/>
	<rect x="-0.003" y="67" fill="#FFFFFF" width="2" height="2"/>
	<polygon fill="#231D1B" points="29.997,99 27.997,99 25.997,99 23.997,99 21.997,99 19.997,99 17.997,99 15.998,99 13.997,99 
		11.997,99 9.997,99 7.997,99 5.997,99 3.997,99 1.997,99 -0.003,99 -0.003,100.999 -0.003,103 -0.003,104.999 -0.003,107 
		-0.003,108.999 -0.003,111 1.997,111 3.997,111 5.997,111 7.997,111 9.997,111 11.997,111 13.997,111 15.998,111 17.997,111 
		19.997,111 21.997,111 23.997,111 25.997,111 27.997,111 29.997,111 31.997,111 33.997,111 33.997,108.999 33.997,107 
		33.997,104.999 33.997,103 33.997,100.999 33.997,99 31.997,99 	"/>
	<polygon fill="#EAA949" points="29.997,123 27.997,123 25.997,123 23.997,123 21.997,123 19.997,123 17.997,123 15.998,123 
		13.997,123 11.997,123 9.997,123 7.997,123 5.997,123 3.997,123 1.997,123 -0.003,123 -0.003,124.999 -0.003,127 -0.003,128.999 
		-0.003,131 -0.003,132.999 1.997,132.999 3.997,132.999 5.997,132.999 7.997,132.999 9.997,132.999 11.997,132.999 13.997,132.999 
		15.998,132.999 17.997,132.999 19.997,132.999 21.997,132.999 23.997,132.999 25.997,132.999 27.997,132.999 29.997,132.999 
		31.997,132.999 33.997,132.999 33.997,131 33.997,128.999 33.997,127 33.997,124.999 33.997,123 31.997,123 	"/>
	<polygon fill="#B53A43" points="29.997,111 27.997,111 25.997,111 23.997,111 21.997,111 19.997,111 17.997,111 15.998,111 
		13.997,111 11.997,111 9.997,111 7.997,111 5.997,111 3.997,111 1.997,111 -0.003,111 -0.003,112.999 -0.003,115 -0.003,116.999 
		-0.003,119 -0.003,120.999 -0.003,123 1.997,123 3.997,123 5.997,123 7.997,123 9.997,123 11.997,123 13.997,123 15.998,123 
		17.997,123 19.997,123 21.997,123 23.997,123 25.997,123 27.997,123 29.997,123 31.997,123 33.997,123 33.997,120.999 33.997,119 
		33.997,116.999 33.997,115 33.997,112.999 33.997,111 31.997,111 	"/>
	<polygon fill="#B53A43" points="29.997,132.999 27.997,132.999 25.997,132.999 23.997,132.999 21.997,132.999 19.997,132.999 
		17.997,132.999 15.998,132.999 13.997,132.999 11.997,132.999 9.997,132.999 7.997,132.999 5.997,132.999 3.997,132.999 
		1.997,132.999 -0.003,132.999 -0.003,134.999 -0.003,136.999 -0.003,138.999 -0.003,141 -0.003,143 1.997,143 3.997,143 5.997,143 
		7.997,143 9.997,143 11.997,143 13.997,143 15.997,143 15.998,143 17.997,143 19.997,143 21.997,143 23.997,143 25.997,143 
		27.997,143 29.997,143 31.997,143 33.997,143 33.997,141 33.997,138.999 33.997,136.999 33.997,134.999 33.997,132.999 
		31.997,132.999 	"/>
	<polygon fill="#B53A43" points="29.997,157 27.997,157 25.997,157 23.997,157 21.997,157 19.997,157 17.997,157 15.998,157 
		15.997,157 13.997,157 11.997,157 9.997,157 7.997,157 5.997,157 3.997,157 1.997,157 -0.003,157 -0.003,159 -0.003,161 
		-0.003,163 -0.003,165 -0.003,167 1.997,167 3.997,167 5.997,167 7.997,167 9.997,167 11.997,167 13.997,167 15.998,167 
		17.997,167 19.997,167 21.997,167 21.997,169 21.997,171 21.997,172.999 21.997,175 21.997,177 21.997,179 21.997,180.999 
		21.997,183 21.997,185 21.997,187 21.997,189 21.997,191 21.997,193 21.997,195 21.997,197.001 21.997,199.001 21.997,201.001 
		23.997,201.001 25.997,201.001 27.997,201.001 29.997,201.001 31.997,201.001 33.997,201.001 33.997,199.001 33.997,197.001 
		33.997,195 33.997,193 33.997,191 33.997,189 33.997,187 33.997,185 33.997,183 33.997,180.999 33.997,179 33.997,177 33.997,175 
		33.997,172.999 33.997,171 33.997,169 33.997,167 33.997,165 33.997,163 33.997,161 33.997,159 33.997,157 31.997,157 	"/>
	<path fill="#EAA949" d="M29.997,143h-2h-2h-2h-2h-2h-2h-1.999h-0.001h-2h-2h-2h-2h-2h-2h-2h-2v2v2v2v2v2v2v2h2h2h2h2h2h2h2h2h0.001
		h1.999h2h2h2h2h2h2h2h2v-2v-2v-2v-2v-2v-2v-2h-2H29.997z M9.997,149v2v2h-2v2h-2v-2h-2v-2v-2v-2h2h2h2V149z"/>
	<polygon fill="#B53A43" points="5.997,147 3.997,147 3.997,149 3.997,151 3.997,153 5.997,153 5.997,155 7.997,155 7.997,153 
		9.997,153 9.997,151 9.997,149 9.997,147 7.997,147 	"/>
	<polygon fill="#FFFFFF" points="21.997,197.001 21.997,195 21.997,193 21.997,191 21.997,189 21.997,187 21.997,185 21.997,183 
		21.997,180.999 21.997,179 21.997,177 21.997,175 21.997,172.999 21.997,171 21.997,169 21.997,167 19.997,167 17.997,167 
		15.998,167 13.997,167 11.997,167 11.997,169 11.997,171 11.997,172.999 11.997,175 11.997,177 11.997,179 11.997,180.999 
		11.997,183 11.997,185 11.997,187 11.997,189 11.997,191 11.997,193 11.997,195 11.997,197.001 11.997,199.001 11.997,201.001 
		13.997,201.001 15.998,201.001 17.997,201.001 19.997,201.001 21.997,201.001 21.997,199.001 	"/>
	<polygon fill="#588730" points="11.997,197.001 11.997,195 11.997,193 11.997,191 11.997,189 11.997,187 11.997,185 11.997,183 
		11.997,180.999 11.997,179 11.997,177 11.997,175 11.997,172.999 11.997,171 11.997,169 11.997,167 9.997,167 7.997,167 5.997,167 
		3.997,167 1.997,167 -0.003,167 -0.003,169 -0.003,171 -0.003,172.999 -0.003,175 -0.003,177 -0.003,179 -0.003,180.999 
		-0.003,183 -0.003,185 -0.003,187 -0.003,189 -0.003,191 -0.003,193 -0.003,195 -0.003,197.001 -0.003,199.001 -0.003,201.001 
		1.997,201.001 3.997,201.001 5.997,201.001 7.997,201.001 9.997,201.001 11.997,201.001 11.997,199.001 	"/>
</g>
</svg>
