<?xml version="1.0" encoding="utf-8"?>
<!-- Generator: Adobe Illustrator 16.0.0, SVG Export Plug-In . SVG Version: 6.00 Build 0)  -->
<!DOCTYPE svg PUBLIC "-//W3C//DTD SVG 1.1//EN" "http://www.w3.org/Graphics/SVG/1.1/DTD/svg11.dtd">
<svg version="1.1" xmlns="http://www.w3.org/2000/svg" xmlns:xlink="http://www.w3.org/1999/xlink" x="0px" y="0px" width="54px"
	 height="34px" viewBox="0 0 54 34" enable-background="new 0 0 54 34" xml:space="preserve">
<g id="Rounded_Rectangle_1_1_" enable-background="new    ">
	<g id="Rounded_Rectangle_1">
		<g>
			<path fill="#507CB4" d="M48,0H6C2.687,0,0,2.687,0,6v22c0,3.313,2.687,6,6,6h42c3.313,0,6-2.687,6-6V6C54,2.687,51.313,0,48,0z"
				/>
		</g>
	</g>
</g>
<g id="Rounded_Rectangle_2_1_" enable-background="new    ">
	<g id="Rounded_Rectangle_2">
		<g>
			<path fill-rule="evenodd" clip-rule="evenodd" fill="#FFFFFF" d="M24,6h-4c-0.829,0-1,0.14-1,0.913v19.174
				C19,26.86,19.171,27,20,27h4c0.829,0,1-0.14,1-0.913V6.913C25,6.14,24.829,6,24,6z M34,6h-4c-0.828,0-1,0.14-1,0.913v19.174
				C29,26.86,29.172,27,30,27h4c0.828,0,1-0.14,1-0.913V6.913C35,6.14,34.828,6,34,6z"/>
		</g>
	</g>
</g>
</svg>
