<?xml version="1.0" encoding="utf-8"?>
<!-- Generator: Adobe Illustrator 16.0.0, SVG Export Plug-In . SVG Version: 6.00 Build 0)  -->
<!DOCTYPE svg PUBLIC "-//W3C//DTD SVG 1.1//EN" "http://www.w3.org/Graphics/SVG/1.1/DTD/svg11.dtd">
<svg version="1.1" xmlns="http://www.w3.org/2000/svg" xmlns:xlink="http://www.w3.org/1999/xlink" x="0px" y="0px"
	 width="595.28px" height="595.25px" viewBox="0 0 595.28 595.25" enable-background="new 0 0 595.28 595.25" xml:space="preserve">
<g id="Layer_2">
	<rect fill="#507CB4" width="595.28" height="595.25"/>
</g>
<g id="Layer_1">
	<g>
		<path fill="#FFFFFF" d="M469.137,474.982L306.764,120.269c0,0,112.043,266.384,100.176,289.654
			c-11.867,23.269-210.241-73.89-210.241-73.89L469.137,474.982"/>
		<g>
			<path fill="#FFFFFF" d="M470.102,474.723c-14.609-31.916-29.221-63.833-43.83-95.751
				c-26.617-58.146-53.234-116.292-79.852-174.439c-12.896-28.174-25.793-56.349-38.691-84.523
				c-0.258-0.565-2.135,0.034-1.932,0.518c16.695,39.7,32.738,79.69,48.291,119.85c12.016,31.028,23.727,62.195,34.387,93.718
				c7.223,21.363,15.682,43.813,18.121,66.386c0.5,4.626,1.146,10.752-4.465,12.152c-8.48,2.115-19.145-1.333-27.264-3.475
				c-29.469-7.771-57.943-19.845-85.922-31.767c-30.824-13.135-61.371-27.046-91.466-41.781c-0.474-0.232-2.267,0.483-1.563,0.843
				c36.7,18.718,73.4,37.436,110.099,56.153c49.998,25.5,99.996,50.999,149.992,76.499c4.115,2.1,8.232,4.199,12.348,6.298
				c0.477,0.243,2.264-0.485,1.563-0.843c-36.701-18.718-73.4-37.436-110.1-56.153c-49.998-25.5-99.995-51-149.992-76.5
				c-4.116-2.099-8.231-4.198-12.347-6.297c-0.521,0.281-1.042,0.562-1.563,0.843c43.1,21.103,87.027,40.998,131.829,58.208
				c13.578,5.216,27.297,10.154,41.285,14.162c9.135,2.617,18.83,5.283,28.41,5.161c4.33-0.055,9.963-1.03,11.039-5.965
				c1.348-6.19-0.605-13.471-1.893-19.496c-5.555-25.994-14.744-51.352-23.604-76.356c-11.27-31.804-23.357-63.318-35.713-94.713
				c-12.836-32.616-25.953-65.134-39.543-97.445c-0.643,0.172-1.287,0.345-1.932,0.518c14.611,31.917,29.221,63.834,43.832,95.751
				c26.617,58.146,53.232,116.292,79.85,174.439c12.898,28.174,25.795,56.349,38.691,84.522
				C468.434,475.816,470.314,475.186,470.102,474.723L470.102,474.723z"/>
		</g>
	</g>
	<g>
		<path fill="#FFFFFF" d="M390.697,305.53l-52.65,102.593c0,0,19.973-51.852,4.389-59.8S126.144,474.412,126.144,474.412
			l180.62-354.144c0,0-139.386,269.686-115.215,282.518C215.719,415.617,390.697,305.53,390.697,305.53"/>
		<g>
			<path fill="#FFFFFF" d="M389.738,305.68c-17.549,34.198-35.1,68.396-52.648,102.593c0.639-0.1,1.277-0.201,1.916-0.301
				c4.307-11.224,7.703-23.034,9.518-34.92c0.979-6.398,3.172-25.536-7.602-25.521c-6.303,0.008-13.059,3.725-18.602,6.29
				c-11.152,5.163-21.928,11.163-32.612,17.223c-51.607,29.267-101.45,61.796-150.966,94.44c-4.458,2.939-8.913,5.882-13.353,8.847
				c0.571-0.023,1.141-0.046,1.712-0.069c15.744-30.869,31.487-61.738,47.231-92.607c29.122-57.1,58.244-114.199,87.366-171.299
				c15.341-30.079,30.682-60.158,46.022-90.237c0.207-0.404-1.643-0.229-1.916,0.301c-18.975,36.72-37.2,73.852-54.879,111.211
				c-13.907,29.388-27.451,58.974-39.845,89.036c-8.847,21.458-18.615,43.877-22.556,66.897c-0.731,4.271-2.049,10.939,0.997,14.662
				c3.364,4.112,12.475,1.648,16.609,0.687c11.586-2.695,22.725-7.595,33.53-12.461c14.446-6.507,28.561-13.742,42.541-21.189
				c37.172-19.804,73.596-41.225,109.25-63.651c0.854-0.537-1.104-0.416-1.508-0.161c-42.561,26.77-86.158,52.449-131.138,74.938
				c-12.981,6.49-26.161,12.726-39.795,17.729c-7.212,2.647-17.842,7.256-25.671,4.692c-4.715-1.544-3.77-8.836-3.335-12.554
				c1.072-9.165,3.938-18.172,6.787-26.909c8.958-27.476,20.602-54.123,32.339-80.5c13.217-29.702,27.15-59.085,41.386-88.311
				c12.143-24.93,24.474-49.781,37.204-74.417c-0.639,0.1-1.277,0.201-1.916,0.301c-15.743,30.869-31.487,61.738-47.231,92.607
				c-29.122,57.1-58.244,114.199-87.366,171.299c-15.341,30.079-30.682,60.157-46.022,90.237c-0.284,0.557,1.546,0.041,1.712-0.07
				c39.167-26.152,78.796-51.676,118.931-76.317c24.438-15.004,49.063-30.206,74.918-42.683c5.467-2.638,13.58-7.635,19.973-7.026
				c5.225,0.498,6.389,8.935,6.641,12.812c0.541,8.353-1.389,16.942-3.391,24.997c-1.85,7.439-4.131,14.838-6.879,21.998
				c-0.197,0.512,1.674,0.17,1.916-0.301c17.549-34.198,35.1-68.396,52.648-102.593C391.861,304.979,390.014,305.146,389.738,305.68
				L389.738,305.68z"/>
		</g>
	</g>
</g>
</svg>
